<svg width="971" height="178" viewBox="0 0 971 178" fill="none" xmlns="http://www.w3.org/2000/svg">
<g clip-path="url(#clip0_1096_11)">
<path d="M130.229 77.9792C133.18 73.1634 138.899 71.1259 144.617 69.4589C148.306 68.3476 151.442 66.4953 153.287 61.1238C143.141 67.6067 132.996 63.717 123.035 64.8283C124.511 58.1602 128.938 53.9001 133.549 49.8252C137.976 45.9355 142.403 42.231 146.462 37.9709C149.413 34.8221 151.258 30.7471 150.889 25.3756C148.122 28.154 146.462 30.9324 143.879 32.5994C132.996 39.4527 121.744 45.7503 110.861 52.4183C109.569 46.3059 111.967 40.7492 114.734 35.1925C117.132 30.5619 116.948 28.3392 114.55 25.0052C111.598 35.563 102.375 40.564 95.7349 48.1582C92.2301 41.8606 91.8612 35.7482 92.7835 29.2653C93.8903 21.6712 95.1815 13.8918 92.2301 6.48283C91.6768 4.07492 90.3855 2.03746 89.0943 0C88.7254 0.185224 88.3565 0.370447 87.8031 0.555671C89.4632 10.3725 87.2497 19.4485 83.1916 28.3392C81.347 32.5994 80.7936 37.4152 79.6868 42.0458C79.3179 43.7128 79.5024 45.565 79.3179 47.6025C73.9685 43.5276 72.6773 41.4901 69.5415 32.4142C67.6969 27.2279 66.2212 25.5609 63.8232 25.0052C64.3766 34.2664 64.7455 44.0832 65.4834 54.641C62.7165 53.5297 60.8718 53.1592 59.5806 52.0479C55.8914 48.8991 52.3867 45.3798 48.8819 42.0458C45.0083 38.1561 41.5035 33.8959 37.4454 30.1915C34.494 27.5983 30.6203 26.1165 25.8244 26.3018C29.5136 30.0062 33.2028 32.7846 35.2318 36.3039C41.1346 46.1207 46.2995 56.1228 51.8333 66.1249C46.6684 66.8658 41.319 65.384 36.3386 62.6056C32.8339 60.5682 29.1447 59.8273 26.0088 60.9386C33.3872 67.4214 40.7657 73.9043 48.1441 80.3871C47.9596 81.128 47.7752 81.6837 47.5907 82.4246C42.7947 82.9802 38.1832 84.0916 33.3872 84.0916C26.7467 84.0916 20.2905 82.9802 13.65 82.9802C8.66953 82.9802 3.87356 84.6472 -0.18457 89.2778C10.3297 87.4256 19.3682 89.6483 28.2223 93.3528C34.3095 95.9459 40.9501 96.872 47.4062 98.539C43.9015 103.725 38.3677 105.763 32.6494 107.615C27.3 109.282 25.8244 110.764 25.0865 114.839C34.494 109.467 44.6393 112.986 54.7847 112.06C54.2313 113.357 54.0468 114.283 53.6779 115.024C50.1731 122.989 43.1636 127.249 36.892 132.435C31.1737 137.251 26.7467 142.807 26.3777 150.772C31.3582 146.697 35.7852 142.622 40.7657 139.103C43.9015 136.88 47.7752 136.139 51.0954 134.287C56.4448 131.138 61.6097 127.804 66.7746 124.47C67.8814 130.397 65.8523 135.769 63.0854 140.955C60.3185 146.512 60.3185 147.809 61.6097 150.957C67.6969 143.919 74.153 136.51 80.978 128.73C84.1139 133.917 85.2206 138.918 84.8517 144.289C84.4828 150.957 83.5605 157.44 83.5605 164.108C83.5605 169.109 85.2206 173.925 90.0166 178C88.172 168.554 89.6477 160.589 92.5991 152.624C94.997 146.142 96.2883 139.103 97.9484 132.25C98.1329 131.324 98.3173 130.398 98.5018 129.286C104.036 133.361 106.065 138.918 107.909 144.66C109.016 148.179 110.492 151.328 115.657 152.995C109.754 142.807 113.074 132.805 112.705 122.618C119.346 124.285 123.773 128.916 128.015 133.732C130.967 137.251 133.734 140.955 137.054 144.104C140.928 147.809 145.539 150.587 151.257 150.031C143.51 143.548 137.976 135.954 134.841 126.508C133.549 122.803 130.967 119.655 128.753 116.32C127.462 114.468 125.986 112.801 124.511 110.949C130.782 109.838 135.947 111.69 140.928 114.098C144.617 115.95 148.306 117.432 153.471 114.653C142.219 111.69 137.239 102.614 129.676 95.9459C136.685 91.6857 144.064 92.6119 151.442 93.3528C156.238 93.7232 161.034 94.0937 165.645 93.9084C170.072 93.538 174.5 92.2414 177.266 88.9074C171.179 88.3517 164.908 88.3517 159.189 86.8699C149.228 84.2768 139.821 80.9428 130.229 77.9792ZM88.7254 128.175C66.959 127.99 49.2508 110.208 49.4353 88.3517C49.4353 66.3101 67.6969 48.3434 89.8322 48.5286C111.414 48.7138 128.938 66.6805 128.938 88.5369C128.569 110.764 110.676 128.36 88.7254 128.175Z" fill="white"></path>
<path d="M651.884 85.7588C650.408 78.9055 646.903 73.3488 639.894 71.1261C629.748 67.6069 619.603 69.0887 609.827 72.9784C605.953 74.6454 602.264 76.868 598.39 78.9055C595.808 74.2749 591.75 71.3113 586.4 70.2C575.148 67.7921 564.449 69.8296 554.489 75.7567C553.013 76.6828 551.537 77.7942 549.693 78.9055C549.693 75.7567 549.693 73.1636 549.693 70.3852C544.159 70.3852 538.994 70.3852 533.645 70.3852C533.645 88.7224 533.645 107.06 533.645 125.211C538.994 125.211 544.159 125.211 549.693 125.211C549.693 124.285 549.693 123.544 549.693 122.804C549.693 113.728 549.693 104.652 549.693 95.5756C549.693 93.5382 550.246 92.0564 551.906 90.9451C558.731 85.5736 566.294 82.7952 574.964 83.3509C580.682 83.7213 583.818 86.3145 585.109 91.8712C585.478 93.5382 585.847 95.2052 585.847 97.0574C585.847 105.763 585.847 114.468 586.031 122.989C586.031 123.73 586.031 124.471 586.031 125.211C591.565 125.211 596.73 125.211 602.079 125.211C602.079 122.433 602.079 119.655 602.079 116.876C602.079 108.912 602.079 100.947 602.264 92.7973C602.264 92.0564 602.817 90.9451 603.371 90.5746C608.167 86.6849 613.516 84.0918 619.603 83.3509C623.661 82.7952 627.904 82.61 631.593 84.8327C635.282 87.0554 636.389 90.7598 636.574 94.6495C636.942 103.911 636.942 113.172 636.942 122.433C636.942 123.359 636.942 124.285 636.942 125.211C642.292 125.211 647.641 125.211 652.806 125.211C652.806 124.841 652.99 124.471 652.99 124.285C652.99 114.468 653.175 104.466 652.99 94.6495C652.806 91.5007 652.437 88.5371 651.884 85.7588Z" fill="white"></path>
<path d="M274.293 96.872C273.739 96.872 273.001 97.7981 272.817 98.3538C271.341 104.651 267.283 108.541 261.196 110.208C254.924 112.06 248.653 112.06 242.381 111.319C231.498 109.838 226.517 104.837 225.595 94.4641C224.673 84.462 228.178 76.8679 238.138 74.46C246.255 72.4225 254.371 72.4225 262.303 75.0156C266.545 76.3122 269.866 78.9053 271.71 83.3507C272.264 84.8325 272.448 86.8699 273.555 87.6108C274.662 88.3517 276.691 87.7961 278.351 87.7961C282.224 87.7961 286.283 87.7961 290.156 87.7961C290.156 86.8699 290.156 86.3143 290.156 85.7586C288.496 73.3486 281.487 65.0135 269.681 61.3091C256.769 57.4194 243.488 57.4194 230.575 60.9386C221.352 63.3465 214.343 68.5328 210.654 77.6088C208.44 83.3507 208.071 89.2779 208.256 95.205C208.625 109.652 216.741 120.21 230.575 123.915C242.381 127.063 254.371 127.063 266.361 124.285C275.03 122.248 282.224 118.173 286.651 109.838C288.865 105.763 289.972 101.503 290.156 96.872C289.603 96.6868 289.418 96.5016 289.234 96.5016C284.253 96.872 279.273 96.6868 274.293 96.872Z" fill="white"></path>
<path d="M753.89 93.7228C752.046 82.4241 745.958 74.8299 735.075 71.4959C723.085 67.7914 710.911 67.9767 698.737 71.1255C692.096 72.7925 686.378 76.3117 682.504 82.2389C672.174 98.909 681.028 120.025 700.028 124.285C707.591 125.952 715.154 126.507 722.901 125.766C729.91 125.211 736.735 123.729 742.638 119.839C748.172 116.32 751.677 111.689 753.337 105.021C747.988 105.021 742.823 105.021 737.842 105.021C737.289 105.021 736.735 105.577 736.367 105.948C734.337 107.429 732.677 109.282 730.464 110.208C722.163 113.542 713.493 113.356 704.824 111.134C699.843 109.837 696.339 106.688 695.047 101.132C714.785 101.132 734.337 101.132 754.444 101.132C754.259 98.5386 754.259 96.1307 753.89 93.7228ZM695.97 90.9444C696.892 87.9808 698.737 85.9434 701.319 84.4616C704.639 82.4241 708.513 81.8684 712.202 81.6832C718.658 81.3128 724.93 81.3128 731.017 84.2763C733.6 85.5729 735.629 87.7956 736.735 90.9444C723.085 90.9444 709.62 90.9444 695.97 90.9444Z" fill="white"></path>
<path d="M429.055 96.8716C428.687 84.8321 421.493 75.0152 410.056 71.496C397.882 67.6063 385.523 67.7915 373.348 71.3107C362.096 74.4595 354.902 81.6833 353.611 93.7228C351.951 108.17 358.407 118.913 372.057 123.359C384.969 127.619 397.882 127.248 410.794 123.359C416.697 121.506 421.677 118.358 424.997 112.986C426.473 110.763 427.395 108.17 428.871 105.207C422.968 105.207 417.988 105.207 413.007 105.207C412.454 105.207 411.901 105.762 411.347 106.133C409.318 107.615 407.289 109.467 405.076 110.578C399.173 113.357 392.717 112.986 386.445 112.616C382.387 112.43 378.513 111.504 375.009 109.096C372.426 107.244 370.766 104.836 370.028 101.317C389.95 101.317 409.503 101.317 429.24 101.317C429.24 99.8352 429.055 98.3534 429.055 96.8716ZM370.766 90.9445C372.057 87.0548 374.824 84.4616 378.513 83.3503C386.814 80.7572 395.299 80.5719 403.784 83.3503C407.474 84.4616 410.241 86.8695 411.716 90.9445C397.882 90.9445 384.416 90.9445 370.766 90.9445Z" fill="white"></path>
<path d="M970.63 93.7223C969.524 83.535 964.359 76.4965 954.951 72.792C941.301 67.4205 927.467 67.6057 913.448 71.4954C905.331 73.7181 899.06 78.7191 896.108 87.0542C894.448 91.3144 894.264 95.7597 894.448 100.205C895.186 110.392 900.167 117.801 909.574 122.061C916.952 125.396 924.7 126.136 932.632 126.322C932.632 126.507 932.632 126.692 932.816 126.877C938.903 125.951 944.99 125.21 950.709 123.914C958.087 122.061 964.359 117.987 967.864 110.948C970.815 105.391 971.368 99.6494 970.63 93.7223ZM954.398 99.0938C953.66 106.688 950.524 110.022 942.961 111.689C935.952 113.171 928.573 113.171 921.564 111.504C911.788 109.281 907.545 98.5381 912.525 89.8326C915.108 85.3872 919.35 84.0906 923.962 83.3497C926.913 82.9793 929.865 82.7941 933.923 82.6088C936.69 82.9793 940.748 83.3497 944.621 84.2759C952.369 85.9429 955.136 91.6848 954.398 99.0938Z" fill="white"></path>
<path d="M835.052 90.7587C833.945 79.8305 828.043 72.6068 817.344 70.1989C805.723 67.6058 794.286 68.9023 783.588 74.0886C780.636 75.3852 777.869 77.2374 774.733 79.0896C774.733 75.9408 774.733 72.9773 774.733 70.1989C769.2 70.1989 763.85 70.1989 758.501 70.1989C758.501 88.7213 758.501 107.058 758.501 125.396C764.035 125.396 769.2 125.396 774.733 125.396C774.733 116.134 774.918 106.873 774.733 97.612C774.733 95.0189 775.656 93.5371 777.5 92.0553C785.617 85.9429 794.655 82.9793 804.616 83.535C812.917 83.9055 817.897 88.5361 818.266 96.8711C818.635 105.391 818.635 113.912 818.635 122.432C818.635 123.358 818.635 124.469 818.635 125.581C824.169 125.581 829.518 125.581 835.052 125.581C835.052 115.394 835.052 105.577 835.052 95.7598C835.052 93.7223 835.052 92.2405 835.052 90.7587Z" fill="white"></path>
<path d="M458.2 84.0913C465.763 82.0538 473.325 82.2391 481.073 83.9061C485.315 84.8322 488.82 86.8697 490.665 91.1298C490.849 91.6855 491.956 92.2411 492.694 92.2411C496.014 92.4264 499.15 92.2411 502.47 92.2411C504.13 92.2411 505.791 92.2411 508.189 92.2411C506.897 88.9071 506.159 86.1288 504.868 83.5356C501.179 76.6823 495.092 72.9779 487.713 70.9404C477.568 68.1621 467.054 68.1621 456.724 69.8291C450.268 70.9404 444.365 72.9779 439.385 77.6085C431.637 85.0174 430.346 94.2786 432.191 104.095C434.22 114.838 441.414 120.766 451.375 123.729C462.442 126.878 473.694 127.063 485.131 124.655C492.14 123.174 498.412 120.395 502.839 114.468C505.422 111.134 507.082 107.429 507.635 102.799C502.286 102.799 497.121 102.799 491.956 102.799C491.587 102.799 490.849 103.355 490.665 103.91C489.189 107.244 486.422 109.467 483.102 110.393C474.617 112.986 466.132 112.986 457.831 110.578C450.821 108.541 448.054 104.095 448.239 96.1308C448.239 90.2037 451.744 85.7583 458.2 84.0913Z" fill="white"></path>
<path d="M890.944 69.8293C887.07 69.8293 883.381 69.8293 879.507 69.8293C875.265 69.8293 871.206 69.8293 866.595 69.8293C866.595 64.4578 866.595 59.2716 866.595 53.7148C861.43 55.1966 856.634 56.6784 852.023 57.975C850.547 58.3454 850.178 59.0863 850.178 60.3829C850.178 63.5317 850.178 66.4953 850.178 69.8293C849.071 69.8293 848.333 69.8293 847.596 69.8293C844.275 69.8293 840.771 69.8293 837.45 69.8293C836.897 69.8293 835.975 70.5702 835.975 70.9406C835.79 75.0156 835.975 79.2757 835.975 83.5359C840.771 83.5359 845.382 83.5359 850.362 83.5359C850.362 84.6472 850.362 85.5733 850.362 86.3142C850.362 94.2788 850.362 102.243 850.547 110.208C850.731 115.58 853.129 119.84 857.925 122.618C861.615 124.841 865.673 125.952 869.731 125.952C876.74 125.952 883.75 125.396 890.759 125.026C891.497 125.026 892.604 124.285 892.604 123.729C892.788 119.654 892.604 115.765 892.604 111.505C891.313 111.69 890.39 111.69 889.284 111.69C884.119 111.875 878.954 112.06 873.789 111.875C869.915 111.69 867.702 109.282 866.964 105.392C866.779 104.466 866.779 103.54 866.595 102.614C866.595 96.5015 866.595 90.3891 866.411 84.462C866.411 84.0915 866.595 83.7211 866.595 83.3506C875.08 83.3506 883.565 83.3506 892.235 83.3506C892.235 79.0905 892.235 75.0156 892.235 70.7554C892.604 69.6441 891.866 69.8293 890.944 69.8293Z" fill="white"></path>
<path d="M353.795 70.7547C338.485 67.2355 324.097 68.1616 310.816 78.9046C310.816 75.3853 310.816 72.607 310.816 69.8286C305.466 69.8286 300.301 69.8286 294.768 69.8286C294.768 88.351 294.768 106.873 294.768 125.211C300.117 125.211 305.466 125.211 310.816 125.211C310.816 124.284 310.816 123.543 310.816 122.617C310.816 113.171 310.816 103.725 310.816 94.2782C310.816 93.352 311.185 92.2407 311.738 91.685C319.116 86.1283 327.417 82.9795 336.64 82.9795C342.174 82.9795 347.708 83.7204 353.426 84.0908C353.795 79.8307 353.795 75.3853 353.795 70.7547Z" fill="white"></path>
<path d="M511.693 125.212C517.043 125.212 522.392 125.212 527.557 125.212C527.557 106.69 527.557 88.3525 527.557 69.8301C522.208 69.8301 517.043 69.8301 511.693 69.8301C511.693 88.3525 511.693 106.875 511.693 125.212Z" fill="white"></path>
<path d="M658.523 125.212C663.873 125.212 669.038 125.212 674.387 125.212C674.387 106.69 674.387 88.3525 674.387 69.8301C669.038 69.8301 663.873 69.8301 658.523 69.8301C658.523 88.3525 658.523 106.875 658.523 125.212Z" fill="white"></path>
<path d="M522.208 50.0098C518.703 50.0098 515.198 50.0098 511.693 50.0098C511.693 55.0108 511.693 59.4562 511.693 64.4572C516.858 64.4572 521.839 64.4572 526.635 64.4572C527.004 64.4572 527.741 63.3459 527.741 62.7902C527.926 60.3823 527.741 57.9744 527.741 55.5665C527.926 50.0098 527.926 50.0098 522.208 50.0098Z" fill="white"></path>
<path d="M658.523 64.272C663.873 64.272 669.038 64.272 674.387 64.272C674.387 59.4562 674.387 54.8256 674.387 50.0098C669.038 50.0098 663.873 50.0098 658.523 50.0098C658.523 54.8256 658.523 59.6414 658.523 64.272Z" fill="white"></path>
</g>
<defs>
<clipPath id="clip0_1096_11">
<rect width="971" height="178" fill="white"></rect>
</clipPath>
</defs>
</svg>