<svg width="725" height="145" viewBox="0 0 725 145" fill="none" xmlns="http://www.w3.org/2000/svg">
<g clip-path="url(#clip0_1096_2)">
<mask id="mask0_1096_2" style="mask-type:luminance" maskUnits="userSpaceOnUse" x="0" y="0" width="179" height="145">
<path d="M178.5 0H0V144.2H178.5V0Z" fill="white"></path>
</mask>
<g mask="url(#mask0_1096_2)">
<path d="M176.6 60.3999C174.6 52.3999 170.8 45.2999 165.5 39.0999C164.5 37.8999 164.4 36.9999 164.8 35.4999C168.3 24.1999 167.3 12.9999 163.4 1.89991C162.9 0.399911 162 0.0999113 160.6 -8.87662e-05C155.1 -8.87662e-05 150 1.49991 145 3.39991C138.3 5.99991 132.1 9.49991 126.1 13.5999C124.7 14.4999 123.5 14.6999 121.9 14.2999C100.1 8.69991 78.1998 8.69991 56.3998 14.2999C54.7998 14.6999 53.5998 14.4999 52.1998 13.5999C43.3998 7.79991 34.1998 2.69991 23.5998 0.599911C16.2998 -0.800089 15.5998 -0.400088 13.5998 6.79991C10.8998 16.5999 10.6998 26.3999 13.7998 36.0999C14.1998 37.1999 13.9998 37.8999 13.2998 38.7999C1.79984 51.9999 -1.20016 67.5999 0.399834 84.4999C1.09984 92.4999 2.59984 100.3 5.59984 107.8C12.1998 124.2 24.4998 134.2 40.9998 139.6C43.8998 140.6 46.8998 141.3 49.9998 142C57.1998 143.6 64.6998 144.3 72.0998 144.3H107C114.8 144.3 122.6 143.5 130.2 141.8C135.1 140.7 139.8 139.2 144.4 137.2C162.6 129.4 172.9 115.2 176.7 96.1999C178.8 84.2999 179.6 72.2999 176.6 60.3999ZM105.6 123.2C94.5998 123.2 83.5998 123.2 72.5998 123.2C69.6998 123.2 67.4998 120.7 67.4998 118.1C67.4998 115.1 69.6998 113 72.6998 113C78.1998 113 83.6998 113 89.1998 113C94.6998 113 100.1 112.9 105.6 113C108.5 113 110.7 115.2 110.7 117.9C110.7 120.8 108.4 123.2 105.6 123.2ZM127.8 86.2999C126.1 86.8999 124.5 86.9999 122.7 86.9999C111.4 86.9999 100.1 86.9999 88.7998 86.9999C77.3998 86.9999 66.0998 86.9999 54.7998 86.8999C46.7998 86.8999 39.9998 81.6999 38.2998 74.3999C36.3998 66.3999 39.9998 58.5999 47.3998 54.9999C49.5998 53.9999 51.8998 53.3999 54.2998 53.3999C77.2998 53.3999 100.5 53.3999 123.5 53.3999C131.6 53.3999 138.7 59.8999 139.7 68.1999C140.9 76.2999 135.7 84.0999 127.8 86.2999Z" fill="white"></path>
</g>
<path d="M236.4 108.4C231.2 108.4 226.6 107.333 222.6 105.2C218.667 103 215.567 99.8001 213.3 95.6001C211.1 91.4001 210 86.2001 210 80.0001V64.0001C210 54.7334 212.467 47.7001 217.4 42.9001C222.333 38.0334 228.967 35.6001 237.3 35.6001C245.567 35.6001 251.867 37.8668 256.2 42.4001C260.533 46.9334 262.7 53.0001 262.7 60.6001V61.1001H254.4V60.4001C254.4 57.0668 253.8 54.1001 252.6 51.5001C251.4 48.9001 249.533 46.8668 247 45.4001C244.467 43.8668 241.233 43.1001 237.3 43.1001C231.367 43.1001 226.733 44.9334 223.4 48.6001C220.067 52.2001 218.4 57.2668 218.4 63.8001V80.2001C218.4 86.7334 220.067 91.8334 223.4 95.5001C226.733 99.1001 231.4 100.9 237.4 100.9C243.267 100.9 247.567 99.2334 250.3 95.9001C253.1 92.5668 254.5 88.1334 254.5 82.6001V80.9001H233.3V73.7001H262.7V107H255.1V99.4001H253.7C252.967 100.867 251.933 102.3 250.6 103.7C249.267 105.1 247.467 106.233 245.2 107.1C242.933 107.967 240 108.4 236.4 108.4ZM278.016 107V37.0001H286.416V68.1001H319.216V37.0001H327.616V107H319.216V75.7001H286.416V107H278.016Z" fill="white"></path>
<path d="M340.241 107V95.4001H349.441V48.6001H340.241V37.0001H376.241C380.507 37.0001 384.207 37.7334 387.341 39.2001C390.541 40.6001 393.007 42.6334 394.741 45.3001C396.541 47.9001 397.441 51.0334 397.441 54.7001V55.7001C397.441 58.9001 396.841 61.5334 395.641 63.6001C394.441 65.6001 393.007 67.1668 391.341 68.3001C389.741 69.3668 388.207 70.1334 386.741 70.6001V72.4001C388.207 72.8001 389.807 73.5668 391.541 74.7001C393.274 75.7668 394.741 77.3334 395.941 79.4001C397.207 81.4668 397.841 84.1668 397.841 87.5001V88.5001C397.841 92.3668 396.941 95.7001 395.141 98.5001C393.341 101.233 390.841 103.333 387.641 104.8C384.507 106.267 380.841 107 376.641 107H340.241ZM362.641 95.0001H375.041C377.907 95.0001 380.207 94.3001 381.941 92.9001C383.741 91.5001 384.641 89.5001 384.641 86.9001V85.9001C384.641 83.3001 383.774 81.3001 382.041 79.9001C380.307 78.5001 377.974 77.8001 375.041 77.8001H362.641V95.0001ZM362.641 65.8001H374.841C377.574 65.8001 379.807 65.1001 381.541 63.7001C383.341 62.3001 384.241 60.3668 384.241 57.9001V56.9001C384.241 54.3668 383.374 52.4334 381.641 51.1001C379.907 49.7001 377.641 49.0001 374.841 49.0001H362.641V65.8001ZM435.847 108.4C427.047 108.4 420.047 106 414.847 101.2C409.647 96.3334 407.047 89.4001 407.047 80.4001V63.6001C407.047 54.6001 409.647 47.7001 414.847 42.9001C420.047 38.0334 427.047 35.6001 435.847 35.6001C444.647 35.6001 451.647 38.0334 456.847 42.9001C462.047 47.7001 464.647 54.6001 464.647 63.6001V80.4001C464.647 89.4001 462.047 96.3334 456.847 101.2C451.647 106 444.647 108.4 435.847 108.4ZM435.847 96.6001C440.78 96.6001 444.614 95.1668 447.347 92.3001C450.08 89.4334 451.447 85.6001 451.447 80.8001V63.2001C451.447 58.4001 450.08 54.5668 447.347 51.7001C444.614 48.8334 440.78 47.4001 435.847 47.4001C430.98 47.4001 427.147 48.8334 424.347 51.7001C421.614 54.5668 420.247 58.4001 420.247 63.2001V80.8001C420.247 85.6001 421.614 89.4334 424.347 92.3001C427.147 95.1668 430.98 96.6001 435.847 96.6001ZM503.225 108.4C497.492 108.4 492.558 107.367 488.425 105.3C484.358 103.167 481.225 100.167 479.025 96.3001C476.892 92.3668 475.825 87.7334 475.825 82.4001V37.0001H489.025V82.8001C489.025 87.0668 490.225 90.4334 492.625 92.9001C495.092 95.3668 498.625 96.6001 503.225 96.6001C507.825 96.6001 511.325 95.3668 513.725 92.9001C516.192 90.4334 517.425 87.0668 517.425 82.8001V37.0001H530.625V82.4001C530.625 87.7334 529.525 92.3668 527.325 96.3001C525.192 100.167 522.058 103.167 517.925 105.3C513.858 107.367 508.958 108.4 503.225 108.4ZM543.412 107V37.0001H568.513L582.413 98.0001H584.213V37.0001H597.213V107H572.113L558.213 46.0001H556.413V107H543.412ZM626.605 107V49.0001H606.205V37.0001H660.205V49.0001H639.805V107H626.605ZM687.194 107V82.9001L663.394 37.0001H678.094L692.894 67.0001H694.694L709.494 37.0001H724.194L700.394 82.9001V107H687.194Z" fill="#05FFEF"></path>
</g>
<defs>
<clipPath id="clip0_1096_2">
<rect width="725" height="145" fill="white"></rect>
</clipPath>
</defs>
</svg>